<?xml version="1.0"?>
<!DOCTYPE svg PUBLIC "-//W3C//DTD SVG 1.1//EN" "http://www.w3.org/Graphics/SVG/1.1/DTD/svg11.dtd">
<svg version="1.1" xmlns="http://www.w3.org/2000/svg" xmlns:xlink="http://www.w3.org/1999/xlink" width="900px" height="600px"
 viewBox="0 0 4 4" preserveAspectRatio="xMidYMid">
 
  <defs>
    <g id="base" stroke-width="0.01" stroke="black">
        <polygon points="2, 3.5 2.4, 0.55 3, 3.5"/>
    </g>

    <g id="swing" stroke-width="0.2" stroke="red">
        <line x1="0.90" y1="0.95" x2="5.60" y2="1.95"/>
    </g>
    
    <g id = "heptagon" fill="white" stroke-width="0.01" stroke="black">
    <polygon points="0.9, 0.4 0.22, 0.97 -0.62, 0.8
    -1,0.1 -0.62, -0.78 0.22, -0.97, 0.9, -0.4"/>
    
    <animateTransform attributeName = "transform" type="rotate" from= "0 0 0" to = "360 0 0" dur="15s" repeatCount="indefinite"/>
    </g>
  </defs>
<g id="gfx1">
<use xlink:href="#heptagon" transform="scale(0.4,0.4) translate(5.5, 5.5)" />
<use xlink:href="#heptagon" transform="scale(0.4,0.4) translate(11.5, 6.8)" />
<use xlink:href="#swing"    transform="scale(0.5, 0.5) translate(3.5, 3.5)" />
<use xlink:href="#base" fill="blue" transform="scale(0.5,0.5) translate(4.5,4.5)"/>
</g>
<g id="gfx2">
<use xlink:href="#heptagon" transform="scale(0.25,0.25) translate(0.5, 1.75)" />
<use xlink:href="#heptagon" transform="scale(0.25,0.25) translate(6.25, 2.9)" />
<use xlink:href="#swing"    transform="scale(0.3, 0.3) translate(-0.5, 0.5)" />
<use xlink:href="#base" fill="purple" transform="scale(0.3,0.3) translate(0.2,1.4)"/>
</g>
<g id="gfx3">
<use xlink:href="#heptagon" transform="scale(0.15,0.15) translate(18, 1.85)" />
<use xlink:href="#heptagon" transform="scale(0.15,0.15) translate(24, 3.2)" />
<use xlink:href="#swing"    transform="scale(0.2, 0.2) translate(12.5, 0.5)" />
<use xlink:href="#base" fill="green" transform="scale(0.2,0.2) translate(13.3, 1.4)"/>
</g>
</svg>
